<svg width="30" height="18" viewBox="0 0 70 58" fill="none" xmlns="http://www.w3.org/2000/svg">
<path d="M26.9231 0C22.4942 0 18.8462 3.26263 18.8462 7.22353V12.0392H24.2308V7.22353C24.2308 5.86791 25.4073 4.81568 26.9231 4.81568H43.0769C44.5927 4.81568 45.7692 5.86791 45.7692 7.22353V12.0392H51.1538V7.22353C51.1538 3.26263 47.5058 0 43.0769 0H26.9231ZM8.07692 14.4471C5.93479 14.4471 3.88039 15.2081 2.36568 16.5628C0.850959 17.9174 0 19.7548 0 21.6706L0 50.5647C0 52.4805 0.850959 54.3178 2.36568 55.6725C3.88039 57.0272 5.93479 57.7882 8.07692 57.7882H61.9231C66.3815 57.7882 70 54.5521 70 50.5647V21.6706C70 19.7548 69.149 17.9174 67.6343 16.5628C66.1196 15.2081 64.0652 14.4471 61.9231 14.4471H8.07692ZM35 21.4442C37.1551 21.4427 39.2894 21.8211 41.2808 22.558C43.2721 23.2948 45.0815 24.3756 46.6054 25.7384C48.1293 27.1013 49.3377 28.7195 50.1616 30.5005C50.9855 32.2815 51.4087 34.1903 51.4069 36.1176C51.4087 38.045 50.9855 39.9538 50.1616 41.7348C49.3377 43.5157 48.1293 45.134 46.6054 46.4968C45.0815 47.8597 43.2721 48.9405 41.2808 49.6773C39.2894 50.4142 37.1551 50.7926 35 50.791C32.8449 50.7926 30.7106 50.4142 28.7192 49.6773C26.7279 48.9405 24.9185 47.8597 23.3946 46.4968C21.8707 45.134 20.6623 43.5157 19.8384 41.7348C19.0145 39.9538 18.5913 38.045 18.5931 36.1176C18.5913 34.1903 19.0145 32.2815 19.8384 30.5005C20.6623 28.7195 21.8707 27.1013 23.3946 25.7384C24.9185 24.3756 26.7279 23.2948 28.7192 22.558C30.7106 21.8211 32.8449 21.4427 35 21.4442ZM32.3077 28.8941V33.7098H26.9231V38.5255H32.3077V43.3412H37.6923V38.5255H43.0769V33.7098H37.6923V28.8941H32.3077Z" fill="#00395E"/>
</svg>
